<svg xmlns="http://www.w3.org/2000/svg" xmlns:xlink="http://www.w3.org/1999/xlink" viewBox="0,0,256,256" width="100px" height="100px"><g fill="#ffffff" fill-rule="nonzero" stroke="none" stroke-width="1" stroke-linecap="butt" stroke-linejoin="miter" stroke-miterlimit="10" stroke-dasharray="" stroke-dashoffset="0" font-family="none" font-weight="none" font-size="none" text-anchor="none" style="mix-blend-mode: normal"><g transform="scale(2.56,2.56)"><path d="M48.63086,21.99609c-7.512,0 -11.74681,5.13272 -18.75781,13.63672c-0.002,0.002 -0.00291,0.00481 -0.00391,0.00781c-0.352,0.426 -0.28928,1.05525 0.13672,1.40625c0.426,0.351 1.05325,0.29028 1.40625,-0.13672l0.00195,-0.00195c1.113,-1.348 3.56645,-2.18423 6.56445,-2.24023c4.664,-0.116 11.36705,1.72617 16.12305,7.07617c5.116,5.755 12.52797,12.61523 18.79297,12.61523c8.283,0 15.22441,-6.65383 18.56641,-17.79883c0.152,-0.51 -0.123,-1.04952 -0.625,-1.22852c-0.502,-0.176 -1.05677,0.0705 -1.25977,0.5625c-1.038,2.518 -2.76295,4.13011 -5.12695,4.78711c-3.785,1.056 -8.33347,-0.58117 -10.35547,-2.07617c-2.711,-2.006 -4.91397,-4.3712 -7.04297,-6.6582c-4.763,-5.118 -9.26192,-9.95117 -18.41992,-9.95117zM48.63086,23.99609c8.288,0 12.30603,4.3145 16.95703,9.3125c2.191,2.353 4.45445,4.7893 7.31445,6.9043c2.186,1.618 7.39798,3.69853 12.08398,2.39453c0.852,-0.237 1.64314,-0.57762 2.36914,-1.01562c-3.402,6.836 -8.56994,10.76758 -14.46094,10.76758c-4.309,0 -10.45283,-4.24136 -17.29883,-11.94336c-5.09,-5.726 -12.20273,-7.75195 -17.30273,-7.75195c-0.118,0 -0.23556,0.00091 -0.35156,0.00391c-1.187,0.022 -2.30045,0.15281 -3.31445,0.38281c4.994,-5.873 8.53191,-9.05469 14.00391,-9.05469zM50,25.5c-0.276,0 -0.5,0.224 -0.5,0.5c0,0.276 0.224,0.5 0.5,0.5c5.973,0 10.07497,4.52822 14.41797,9.32422c1.939,2.139 3.944,4.35319 6.125,6.11719c2.025,1.639 6.25886,4.125 10.38086,4.125c0.514,0 1.02625,-0.03905 1.53125,-0.12305c0.273,-0.045 0.45711,-0.30222 0.41211,-0.57422c-0.045,-0.271 -0.30222,-0.46511 -0.57422,-0.41211c-4.219,0.693 -8.97505,-2.05597 -11.12305,-3.79297c-2.12,-1.715 -4.09872,-3.89972 -6.01172,-6.01172c-4.298,-4.746 -8.7422,-9.65234 -15.1582,-9.65234zM46.7793,25.77539c-2.188,0.426 -3.81664,1.31559 -6.05664,2.80859c-0.23,0.153 -0.29362,0.46436 -0.14062,0.69336c0.097,0.145 0.25597,0.22266 0.41797,0.22266c0.096,0 0.19139,-0.02698 0.27539,-0.08398c2.132,-1.421 3.67136,-2.2652 5.69336,-2.6582c0.271,-0.053 0.44948,-0.31494 0.39648,-0.58594c-0.052,-0.271 -0.31194,-0.44248 -0.58594,-0.39648zM27.48633,45.64063c-7.512,0 -11.74486,5.13272 -18.75586,13.63672c-0.001,0.002 -0.00291,0.00386 -0.00391,0.00586c-0.352,0.426 -0.29123,1.05425 0.13477,1.40625c0.427,0.351 1.0572,0.29323 1.4082,-0.13477v-0.00195c1.145,-1.386 3.68211,-2.23548 6.78711,-2.27148c4.638,-0.061 11.29358,1.78066 15.89258,7.09766c7.042,8.142 13.72169,12.625 18.80469,12.625c8.284,0 15.2225,-6.65278 18.5625,-17.80078c0.152,-0.51 -0.12105,-1.04952 -0.62305,-1.22852c-0.501,-0.178 -1.05676,0.06755 -1.25977,0.56055c-1.097,2.66 -2.92555,4.33361 -5.43555,4.97461c-3.579,0.917 -7.83262,-0.47033 -10.01562,-2.23633c-2.416,-1.954 -4.44811,-4.14653 -6.41211,-6.26953c-4.933,-5.329 -9.59098,-10.36328 -19.08398,-10.36328zM27.49023,47.64063c8.618,0 12.78724,4.5037 17.61523,9.7207c2.013,2.175 4.09505,4.42475 6.62305,6.46875c2.625,2.124 7.50858,3.70619 11.76758,2.61719c0.966,-0.246 1.85988,-0.62214 2.67188,-1.11914c-3.403,6.78 -8.55006,10.67578 -14.41406,10.67578c-4.493,0 -10.63306,-4.23859 -17.28906,-11.93359c-4.974,-5.751 -12.10303,-7.79102 -17.20703,-7.79102c-0.074,0 -0.15066,0.00095 -0.22266,0.00195c-1.271,0.014 -2.46111,0.14948 -3.53711,0.39648c4.987,-5.862 8.52519,-9.03711 13.99219,-9.03711zM28.5,49c-0.276,0 -0.5,0.224 -0.5,0.5c0,0.276 0.224,0.5 0.5,0.5c5.973,0 10.07497,4.52822 14.41797,9.32422c1.939,2.139 3.944,4.35319 6.125,6.11719c2.025,1.639 6.25886,4.125 10.38086,4.125c0.514,0 1.02625,-0.03905 1.53125,-0.12305c0.273,-0.045 0.45711,-0.30222 0.41211,-0.57422c-0.045,-0.271 -0.30022,-0.46111 -0.57422,-0.41211c-4.216,0.7 -8.97505,-2.05597 -11.12305,-3.79297c-2.12,-1.715 -4.09872,-3.89972 -6.01172,-6.01172c-4.298,-4.746 -8.7422,-9.65234 -15.1582,-9.65234zM26.05859,49.14844c-2.576,0.345 -4.32294,1.25955 -6.83594,2.93555c-0.23,0.153 -0.29363,0.46436 -0.14062,0.69336c0.097,0.145 0.25597,0.22266 0.41797,0.22266c0.096,0 0.19234,-0.02698 0.27734,-0.08398c2.386,-1.59 4.03306,-2.45639 6.41406,-2.77539c0.274,-0.037 0.46474,-0.2895 0.42773,-0.5625c-0.037,-0.274 -0.28955,-0.47469 -0.56055,-0.42969z"></path></g></g></svg>